<?xml version="1.0" encoding="utf-8"?>
<!-- Generator: Adobe Illustrator 16.0.0, SVG Export Plug-In . SVG Version: 6.00 Build 0)  -->
<!DOCTYPE svg PUBLIC "-//W3C//DTD SVG 1.0//EN" "http://www.w3.org/TR/2001/REC-SVG-20010904/DTD/svg10.dtd">
<svg version="1.0" id="Layer_1" xmlns="http://www.w3.org/2000/svg" xmlns:xlink="http://www.w3.org/1999/xlink" x="0px" y="0px"
	 width="272.094px" height="195px" viewBox="0 0 272.094 195" enable-background="new 0 0 272.094 195" xml:space="preserve">
<path fill="#278E7E" d="M241.823,75.428c0.916,0.763,2.025,1.137,3.132,1.137c1.395,0,2.781-0.595,3.746-1.749
	c1.732-2.07,1.458-5.148-0.61-6.878l-30.885-25.84c-2.069-1.725-5.146-1.458-6.878,0.612c-1.732,2.069-1.458,5.148,0.61,6.878
	L241.823,75.428z"/>
<path fill="#278E7E" d="M241.821,94.956c0.914,0.767,2.027,1.141,3.132,1.141c1.396,0,2.781-0.595,3.744-1.747
	c1.734-2.068,1.464-5.146-0.604-6.878l-54.425-45.593c-2.065-1.732-5.146-1.461-6.878,0.606c-1.732,2.067-1.461,5.148,0.606,6.878
	L241.821,94.956z"/>
<path fill="#278E7E" d="M241.823,55.894c0.914,0.765,2.025,1.139,3.132,1.139c1.395,0,2.781-0.595,3.746-1.747
	c1.732-2.072,1.458-5.15-0.61-6.88l-6.996-5.854c-2.065-1.73-5.146-1.461-6.878,0.611c-1.732,2.069-1.458,5.148,0.61,6.878
	L241.823,55.894z"/>
<path fill="#278E7E" d="M256.903,14.443h-124.22c-3.29-0.496-5.945-1.116-7.861-1.634c-8.598-3.991-19.983-7.958-32.372-8.725
	C78.798,3.229,65.845,6.76,54.413,9.865c-9.081,2.466-17.655,4.793-22.72,3.489c-1.632-0.423-3.742-1.278-5.977-2.184
	C19.357,8.597,12.79,5.934,7.919,9.223C6.123,10.436,3.986,12.927,4,17.896c0.026,8.326,0,143.161,0,144.522
	c0,14.76,14.274,17.125,23.718,18.691c15.715,2.604,26.671-0.384,37.268-3.277c8.451-2.304,16.428-4.482,26.862-3.838
	c16.724,1.036,31.697,7.798,39.13,11.736l0.107-0.204l-0.044,0.237c0,0,3.174,2.441,10.495,2.084
	c0.048-0.002,0.078-0.017,0.122-0.021c0.265,0.017,0.511,0.052,0.792,0.052h114.453c0,0,9.767,0,9.767-9.767V24.209
	C266.669,24.209,266.669,14.443,256.903,14.443 M132.683,165.037c0,7.408-5.953,7.273-7.932,7.025
	c-8.633-3.539-19.987-7.052-32.301-7.815c-12.04-0.751-21.191,1.749-30.035,4.164c-10.028,2.735-19.5,5.316-33.1,3.062
	c-13.2-2.186-15.549-4.272-15.549-9.055c0-1.238,0.019-112.913,0.005-139.369c0.27-1.909,1.352-4.465,5.226-4.034
	c1.125,0.425,2.205,0.866,3.051,1.208c2.431,0.984,4.943,2.003,7.199,2.584c7.576,1.961,16.912-0.578,27.725-3.517
	c10.706-2.907,22.839-6.201,34.876-5.459c16.87,1.045,32.139,9.095,39.082,13.314c0.973,1.278,1.754,3.044,1.754,5.431V165.037z
	 M199.647,178.595c-2.692,0-4.877-2.184-4.877-4.877s2.185-4.877,4.877-4.877c2.693,0,4.88,2.184,4.88,4.877
	S202.34,178.595,199.647,178.595 M256.903,159.026H142.45V34.021h114.453V159.026z"/>
<rect x="128.594" y="74.282" width="17" height="50"/>
<rect x="112.094" y="90.781" width="50" height="17"/>
</svg>
